<svg width="46" height="48" viewBox="0 0 46 48" fill="none" xmlns="http://www.w3.org/2000/svg">
<g clip-path="url(#clip0_317_39)" filter="url(#filter0_d_317_39)">
<rect x="4.5" y="16.6667" width="23.3333" height="23.3333" fill="#7595FD"/>
<g filter="url(#filter1_d_317_39)">
<path d="M34.5 26.6667H31.1667V25.0001H17.8334V26.6667H14.5V25.0001H7.83337V33.3334H41.1667V25.0001H34.5V26.6667ZM37.8334 13.3334H32.8334V10.0001C32.8334 8.16675 31.3334 6.66675 29.5 6.66675H19.5C17.6667 6.66675 16.1667 8.16675 16.1667 10.0001V13.3334H11.1667C9.33337 13.3334 7.83337 14.8334 7.83337 16.6667V23.3334H14.5V20.0001H17.8334V23.3334H31.1667V20.0001H34.5V23.3334H41.1667V16.6667C41.1667 14.8334 39.6667 13.3334 37.8334 13.3334ZM29.5 13.3334H19.5V10.0001H29.5V13.3334Z" fill="white"/>
</g>
</g>
<defs>
<filter id="filter0_d_317_39" x="0.5" y="0" width="48" height="48" filterUnits="userSpaceOnUse" color-interpolation-filters="sRGB">
<feFlood flood-opacity="0" result="BackgroundImageFix"/>
<feColorMatrix in="SourceAlpha" type="matrix" values="0 0 0 0 0 0 0 0 0 0 0 0 0 0 0 0 0 0 127 0" result="hardAlpha"/>
<feOffset dy="4"/>
<feGaussianBlur stdDeviation="2"/>
<feComposite in2="hardAlpha" operator="out"/>
<feColorMatrix type="matrix" values="0 0 0 0 0 0 0 0 0 0 0 0 0 0 0 0 0 0 0.25 0"/>
<feBlend mode="normal" in2="BackgroundImageFix" result="effect1_dropShadow_317_39"/>
<feBlend mode="normal" in="SourceGraphic" in2="effect1_dropShadow_317_39" result="shape"/>
</filter>
<filter id="filter1_d_317_39" x="3.83337" y="6.66675" width="41.3334" height="34.6667" filterUnits="userSpaceOnUse" color-interpolation-filters="sRGB">
<feFlood flood-opacity="0" result="BackgroundImageFix"/>
<feColorMatrix in="SourceAlpha" type="matrix" values="0 0 0 0 0 0 0 0 0 0 0 0 0 0 0 0 0 0 127 0" result="hardAlpha"/>
<feOffset dy="4"/>
<feGaussianBlur stdDeviation="2"/>
<feComposite in2="hardAlpha" operator="out"/>
<feColorMatrix type="matrix" values="0 0 0 0 0 0 0 0 0 0 0 0 0 0 0 0 0 0 0.25 0"/>
<feBlend mode="normal" in2="BackgroundImageFix" result="effect1_dropShadow_317_39"/>
<feBlend mode="normal" in="SourceGraphic" in2="effect1_dropShadow_317_39" result="shape"/>
</filter>
<clipPath id="clip0_317_39">
<rect width="40" height="40" fill="white" transform="translate(4.5)"/>
</clipPath>
</defs>
</svg>
